<svg xmlns="http://www.w3.org/2000/svg" width="47.652" height="50" viewBox="0 0 47.652 50">
  <g id="road_1_" data-name="road (1)" transform="translate(-1.174)">
    <g id="Group_11" data-name="Group 11">
      <path id="Path_23" data-name="Path 23" d="M33.64,20.086C12.672,12.92,26.81,4.336,33.926.951a.1.1,0,0,0-.044-.192H28.807a5.3,5.3,0,0,0-2.33.545C18.415,5.244,2.161,14.831,15.292,22.871c15.058,9.22-1.085,21.259-9.534,26.424H38.887c4.43-6.324,13.61-22.764-5.247-29.209Z" fill="#665e68"/>
      <path id="Path_24" data-name="Path 24" d="M5.758,49.294h7.278C21.717,43.311,35,31.466,20.892,22.26c-11.777-7.685.083-16.695,8.47-21.5h-.555a5.3,5.3,0,0,0-2.33.545C18.415,5.244,2.161,14.831,15.292,22.871c15.058,9.22-1.085,21.259-9.534,26.424Z" fill="#554e56"/>
      <path id="Path_25" data-name="Path 25" d="M35.318,18.328C15.336,12.153,26.865,5.12,34.263,1.5A.393.393,0,0,0,34.12.759h-.275C26.886,4,11.776,12.781,33.152,20.086,52.009,26.53,42.829,42.971,38.4,49.294h3.755A2.527,2.527,0,0,0,44.4,47.81C48.658,39.046,52.63,23.679,35.318,18.328Z" fill="#ffd301"/>
      <g id="Group_10" data-name="Group 10">
        <g id="Group_9" data-name="Group 9">
          <path id="Path_26" data-name="Path 26" d="M15.488,22.871c-9.708-5.944-3.549-12.734,3.681-17.462C11.08,9.944,1.8,17.4,12.677,24.057c12.736,7.8-.624,17.613-10.357,23.579a.9.9,0,0,0,.39,1.658H5.954c8.449-5.164,24.592-17.2,9.534-26.424Z" fill="#ffc20c"/>
        </g>
      </g>
    </g>
    <g id="Group_12" data-name="Group 12">
      <path id="Path_27" data-name="Path 27" d="M22.5,6.089a.733.733,0,0,0-1-.274c-.008,0-.212.121-.537.334a.733.733,0,1,0,.8,1.226c.279-.183.454-.283.459-.286a.733.733,0,0,0,.274-1Z" fill="#050402"/>
      <path id="Path_28" data-name="Path 28" d="M28.581,40.525c-.247.289-.507.582-.774.87a.733.733,0,0,0,1.075,1c.281-.3.555-.611.815-.916a.733.733,0,1,0-1.116-.951Z" fill="#050402"/>
      <path id="Path_29" data-name="Path 29" d="M32.325,36.047a.733.733,0,0,0-.978.345c-.158.331-.337.67-.531,1.008a.733.733,0,0,0,1.271.731c.212-.369.408-.741.583-1.106a.733.733,0,0,0-.345-.978Z" fill="#050402"/>
      <path id="Path_30" data-name="Path 30" d="M33.831,32.962c.019-.236.028-.473.028-.706,0-.2-.007-.4-.021-.6a.733.733,0,0,0-1.462.1c.011.162.017.328.017.493,0,.194-.008.392-.024.59a.733.733,0,1,0,1.461.116Z" fill="#050402"/>
      <path id="Path_31" data-name="Path 31" d="M31.656,26.567a.733.733,0,1,0-1.113.954,8.878,8.878,0,0,1,.665.878.733.733,0,0,0,1.223-.809,10.354,10.354,0,0,0-.775-1.023Z" fill="#050402"/>
      <path id="Path_32" data-name="Path 32" d="M28.472,23.865c-.336-.217-.692-.432-1.058-.639a.733.733,0,1,0-.721,1.276c.342.193.673.393.985.595a.733.733,0,0,0,.795-1.232Z" fill="#050402"/>
      <path id="Path_33" data-name="Path 33" d="M22.788,20.9a.733.733,0,1,0-.713,1.281c.345.192.708.384,1.079.573a.733.733,0,1,0,.663-1.308c-.355-.18-.7-.364-1.029-.546Z" fill="#050402"/>
      <path id="Path_34" data-name="Path 34" d="M18.667,19.875a.733.733,0,1,0,.951-1.116c-.3-.253-.573-.511-.821-.767a.733.733,0,1,0-1.053,1.02c.28.289.591.58.923.862Z" fill="#050402"/>
      <path id="Path_35" data-name="Path 35" d="M16.217,13.187a.735.735,0,0,0-.753.713c0,.052,0,.1,0,.157a5.824,5.824,0,0,0,.126,1.2.733.733,0,0,0,1.434-.3,4.36,4.36,0,0,1-.094-.9q0-.058,0-.116a.733.733,0,0,0-.713-.753Z" fill="#050402"/>
      <path id="Path_36" data-name="Path 36" d="M17.152,10.846a.733.733,0,0,0,1.024-.164,10.438,10.438,0,0,1,.7-.865.733.733,0,1,0-1.088-.982,11.89,11.89,0,0,0-.8.988A.733.733,0,0,0,17.152,10.846Z" fill="#050402"/>
      <path id="Path_37" data-name="Path 37" d="M24.977,44.075c-.271.224-.432.346-.433.348a.733.733,0,1,0,.886,1.168c.007-.006.184-.14.481-.386a.733.733,0,1,0-.934-1.13Z" fill="#050402"/>
      <path id="Path_38" data-name="Path 38" d="M27.886,50H42.154a3.25,3.25,0,0,0,2.906-1.9c6.638-13.668,5.114-25.977-9.526-30.5-4.713-1.457-10.381-3.836-10.62-6.9-.191-2.451,3.063-5.334,9.671-8.57A1.125,1.125,0,0,0,34.121,0H28.807a5.993,5.993,0,0,0-2.652.619A70.034,70.034,0,0,0,18.8,4.75C11.044,9.1,7.073,13.315,7,17.276c-.052,2.712,1.731,5.194,5.3,7.379,3.232,1.979,4.871,4.2,4.872,6.6,0,6.4-11.462,13.424-15.229,15.733A1.633,1.633,0,0,0,2.711,50H24.468a.732.732,0,0,0,0-1.465H8.282c12.474-8.2,20.124-18.521,7.393-26.316C7.739,17.36,11.04,11.825,18.746,6.546A66.119,66.119,0,0,1,26.8,1.935a4.541,4.541,0,0,1,2.009-.47h1.944c-3.88,2.094-9.572,5.821-9.337,10.224a6.715,6.715,0,0,0,2.843,4.751,28.7,28.7,0,0,0,8.658,4.312C39.6,23.036,43.25,26.82,43.77,32a.732.732,0,0,0,1.458-.146c-.582-5.8-4.565-10-11.838-12.489-6.729-2.3-10.364-4.981-10.512-7.755A4.742,4.742,0,0,1,23.8,8.757C21.612,14.081,29.588,17.3,35.1,19c5.567,1.72,9.279,4.642,11.033,8.685,2.962,6.825-.227,15.32-2.392,19.777a1.8,1.8,0,0,1-1.589,1.072H39.782c2.533-3.846,4.824-8.544,5.386-13.1a.732.732,0,1,0-1.454-.179c-.283,2.3-1.4,7.044-5.7,13.279H27.886a.732.732,0,0,0,0,1.465ZM5.552,48.535H2.7a.214.214,0,0,1-.059-.156c0-.1.047-.135.064-.145,6.838-4.192,15.93-10.513,15.928-16.982,0-2.943-1.875-5.583-5.572-7.846-4.7-2.881-6.152-6.222-2.662-10.464-2.076,4.291.15,7.748,4.184,10.321.292.186.382.235.685.428,11.923,7.6,2.3,17.458-9.716,24.843Z" fill="#050402"/>
    </g>
  </g>
</svg>
