<svg xmlns="http://www.w3.org/2000/svg" width="51.438" height="51.438" viewBox="0 0 51.438 51.438">
  <path id="clear" d="M29.094,3.375A25.719,25.719,0,1,0,54.813,29.094,25.715,25.715,0,0,0,29.094,3.375ZM35.61,38.4l-6.516-6.516L22.578,38.4a1.976,1.976,0,1,1-2.794-2.794L26.3,29.094l-6.516-6.516a1.976,1.976,0,0,1,2.794-2.794L29.094,26.3l6.516-6.516A1.976,1.976,0,1,1,38.4,22.578l-6.516,6.516L38.4,35.61a1.985,1.985,0,0,1,0,2.794A1.963,1.963,0,0,1,35.61,38.4Z" transform="translate(-3.375 -3.375)" fill="#fff"/>
</svg>
