<svg xmlns="http://www.w3.org/2000/svg" width="50.4" height="50.973" viewBox="0 0 50.4 50.973">
  <g id="clear-path" transform="translate(-224.6 -70.5)">
    <rect id="Rectangle_1" data-name="Rectangle 1" width="50" height="50" transform="translate(225 71)" fill="rgba(255,255,255,0)"/>
    <g id="cross" transform="translate(221.725 67.625)">
      <path id="Path_1" data-name="Path 1" d="M27.776,25.538l-5.224-5.224,5.224-5.224a1.584,1.584,0,0,0-2.24-2.24l-5.224,5.224-5.224-5.224a1.584,1.584,0,0,0-2.24,2.24l5.224,5.224-5.224,5.224a1.532,1.532,0,0,0,0,2.24,1.574,1.574,0,0,0,2.24,0l5.224-5.224,5.224,5.224a1.591,1.591,0,0,0,2.24,0A1.574,1.574,0,0,0,27.776,25.538Z" transform="translate(3.682 3.68)" fill="#fff" stroke="#fff" stroke-width="1"/>
      <path id="Path_2" data-name="Path 2" d="M23.993,6.151a17.836,17.836,0,1,1-12.619,5.224A17.725,17.725,0,0,1,23.993,6.151m0-2.776A20.618,20.618,0,1,0,44.612,23.993,20.615,20.615,0,0,0,23.993,3.375Z" fill="#fff" stroke="#fff" stroke-width="1"/>
    </g>
    <g id="road" transform="translate(232.2 90.099)">
      <path id="Path_8" data-name="Path 8" d="M71.183,12.493C57.629,7.861,66.768,2.312,71.368.124A.065.065,0,0,0,71.34,0H68.059a3.425,3.425,0,0,0-1.506.352C61.341,2.9,50.835,9.1,59.323,14.293c9.734,5.96-.7,13.742-6.163,17.081H74.575C77.439,27.286,83.373,16.658,71.183,12.493Z" transform="translate(-38.14 0)" fill="#fff"/>
      <path id="Path_21" data-name="Path 21" d="M234.484,11.357C221.567,7.365,229.02,2.819,233.8.478A.254.254,0,0,0,233.71,0h-.178c-4.5,2.1-14.266,7.771-.448,12.493,12.189,4.166,6.256,14.793,3.392,18.881H238.9a1.633,1.633,0,0,0,1.453-.96C243.107,24.749,245.675,14.816,234.484,11.357Z" transform="translate(-200.356)" fill="#707070"/>
      <g id="Group_8" data-name="Group 8" transform="translate(12.53 3.005)">
        <g id="Group_7" data-name="Group 7" transform="translate(0)">
          <path id="Path_22" data-name="Path 22" d="M21.309,60.335c-6.276-3.842-2.294-8.231,2.379-11.288C18.46,51.979,12.464,56.8,19.492,61.1c8.233,5.041-.4,11.385-6.695,15.242a.583.583,0,0,0,.252,1.072h2.1C20.608,74.077,31.043,66.295,21.309,60.335Z" transform="translate(-12.53 -49.047)" fill="#707070"/>
        </g>
      </g>
    </g>
  </g>
</svg>
