<svg xmlns="http://www.w3.org/2000/svg" width="51.007" height="51.007" viewBox="0 0 51.007 51.007">
  <g id="cross" transform="translate(-2.875 -2.875)">
    <path id="Path_1" data-name="Path 1" d="M31.055,28.342,24.72,22.006l6.335-6.335a1.921,1.921,0,1,0-2.717-2.717L22,19.29l-6.335-6.335a1.921,1.921,0,0,0-2.717,2.717l6.335,6.335-6.335,6.335a1.857,1.857,0,0,0,0,2.717,1.908,1.908,0,0,0,2.717,0L22,24.723l6.335,6.335a1.93,1.93,0,0,0,2.717,0A1.908,1.908,0,0,0,31.055,28.342Z" transform="translate(6.376 6.372)" fill="#fff" stroke="#fff" stroke-width="1"/>
    <path id="Path_2" data-name="Path 2" d="M28.379,6.741a21.641,21.641,0,0,1,15.3,36.941A21.641,21.641,0,0,1,13.076,13.076a21.5,21.5,0,0,1,15.3-6.335m0-3.366a25,25,0,1,0,25,25,25,25,0,0,0-25-25Z" transform="translate(0 0)" fill="#fff" stroke="#fff" stroke-width="1"/>
  </g>
</svg>
