<svg xmlns="http://www.w3.org/2000/svg" width="50.151" height="50" viewBox="0 0 50.151 50">
  <g id="turn" transform="translate(0 -0.773)">
    <path id="Path_64" data-name="Path 64" d="M172.875,17.394l8.143-9.142,8.143,9.142h-5.319V56.787h-5.649V17.394Z" transform="translate(-155.942 -6.746)" fill="#cc2939"/>
    <path id="Path_65" data-name="Path 65" d="M232.822,165.925a13.22,13.22,0,0,0-5.649,5.178v27.912h5.649v-33.09h0Z" transform="translate(-204.921 -148.975)" fill="#b7253a"/>
    <path id="Path_66" data-name="Path 66" d="M232.809,158.1V138.438a7.28,7.28,0,0,1,2.253-5.281,7.485,7.485,0,0,1,5.392-2.1l4.611,0v5.583l9.264-8.036-9.264-8.036v4.916h-4.471a13.134,13.134,0,0,0-9.48,3.687,12.775,12.775,0,0,0-3.954,9.268V158.1Z" transform="translate(-204.909 -108.059)" fill="#ffdb56"/>
    <path id="Path_67" data-name="Path 67" d="M227.159,288.231h5.649V269.726a13.229,13.229,0,0,0-5.1-4.9,12.86,12.86,0,0,0-.552,3.741v19.661Z" transform="translate(-204.908 -238.191)" fill="#e7c443"/>
    <path id="Path_68" data-name="Path 68" d="M29,244.732V234.478a7.28,7.28,0,0,0-2.253-5.281,7.485,7.485,0,0,0-5.392-2.1l-4.611,0v5.583l-9.264-8.036,9.264-8.036v4.916h4.471a13.134,13.134,0,0,1,9.48,3.687,12.775,12.775,0,0,1,3.954,9.268v10.254H29Z" transform="translate(-6.746 -194.692)" fill="#09f"/>
    <path id="Path_69" data-name="Path 69" d="M49.9,19.989l-9.264-8.036a.733.733,0,0,0-1.213.553v4.184H35.7a13.931,13.931,0,0,0-7.067,1.722V11.38h4.586a.733.733,0,0,0,.547-1.22L25.623,1.018a.733.733,0,0,0-1.094,0L16.386,10.16a.733.733,0,0,0,.547,1.22h4.586v3.226a.733.733,0,1,0,1.465,0V10.648a.733.733,0,0,0-.733-.733H18.567l6.509-7.308,6.509,7.308H27.9a.733.733,0,0,0-.733.733v8.7A14.036,14.036,0,0,0,25.7,20.584a13.723,13.723,0,0,0-2.711,3.637V17.536a.733.733,0,1,0-1.465,0V27.821A13.908,13.908,0,0,0,14.453,26.1H10.729V21.914a.733.733,0,0,0-1.213-.553L.253,29.4a.732.732,0,0,0,0,1.107l2.853,2.475a.733.733,0,1,0,.96-1.107L1.851,29.95l7.413-6.43V26.83a.733.733,0,0,0,.732.733h4.487a12.413,12.413,0,0,1,8.955,3.482,12.048,12.048,0,0,1,3.728,8.633v1.736a.733.733,0,0,0,.733.733h0a.733.733,0,0,0,.733-.733v-1.63c0-.036,0-.071,0-.107v-9.3a6.554,6.554,0,0,1,2.029-4.754,6.747,6.747,0,0,1,4.868-1.9h3.893v4.85a.733.733,0,0,0,1.213.553L49.9,21.1a.732.732,0,0,0,0-1.107Zm-9.011,6.984V23a.733.733,0,0,0-.733-.733h0l-4.6,0a8.223,8.223,0,0,0-5.908,2.306,8.006,8.006,0,0,0-2.477,5.808v3.262a13.731,13.731,0,0,0-2.711-3.649,14.086,14.086,0,0,0-1.374-1.165,11.977,11.977,0,0,1,3.631-7.188,12.4,12.4,0,0,1,8.963-3.482h4.479a.733.733,0,0,0,.732-.733V14.112l7.413,6.43Z"/>
    <path id="Path_70" data-name="Path 70" d="M74.567,328.146a.733.733,0,0,0-.733.733v4.961H69.651v-9.521a8.006,8.006,0,0,0-2.477-5.808,8.213,8.213,0,0,0-5.908-2.306l-4.6,0h0a.733.733,0,0,0-.733.733v3.978l-2.984-2.588a.733.733,0,0,0-.96,1.107l4.2,3.64a.733.733,0,0,0,1.213-.553v-4.85h3.893a6.757,6.757,0,0,1,4.868,1.9,6.553,6.553,0,0,1,2.029,4.754v10.254a.733.733,0,0,0,.733.733h5.649a.733.733,0,0,0,.733-.733v-5.694A.732.732,0,0,0,74.567,328.146Z" transform="translate(-46.666 -284.532)"/>
  </g>
</svg>
