<svg id="path" xmlns="http://www.w3.org/2000/svg" width="41.166" height="41.166" viewBox="0 0 41.166 41.166">
  <path id="Path_7" data-name="Path 7" d="M32.724,29.105c-2.844,0-5.971,1.052-7.548,3.293l-8.314-1.637a4.844,4.844,0,0,0-1.479-3.915L20.546,23.2a10.982,10.982,0,0,0,4.861,1.081c4.013,0,8.442-2.2,8.442-6.03,0-3.469-3.672-5.613-7.236-5.97V9.648h9.648V0H24.2V12.281c-3.569.357-7.236,2.515-7.236,5.97a4.917,4.917,0,0,0,1.5,3.465L13.3,25.363a10.982,10.982,0,0,0-4.861-1.081c-4.013,0-8.442,2.2-8.442,6.03s4.432,6.03,8.442,6.03c2.867,0,5.981-1.065,7.548-3.293L24.3,34.685c-.4,4.081,4.243,6.48,8.42,6.48,4.013,0,8.442-2.2,8.442-6.03S36.734,29.105,32.724,29.105ZM26.613,2.412h7.236V7.236H26.613ZM24.2,14.709v3.542h2.412V14.709c2.714.346,4.824,1.828,4.824,3.542,0,1.961-2.761,3.618-6.03,3.618s-6.03-1.657-6.03-3.618C19.377,16.537,21.487,15.055,24.2,14.709ZM8.442,33.93c-3.269,0-6.03-1.657-6.03-3.618s2.761-3.618,6.03-3.618,6.03,1.657,6.03,3.618S11.711,33.93,8.442,33.93Zm24.281,4.824c-3.269,0-6.03-1.657-6.03-3.618s2.761-3.618,6.03-3.618,6.03,1.657,6.03,3.618S35.992,38.754,32.724,38.754Z" fill="#fff"/>
</svg>
