<svg xmlns="http://www.w3.org/2000/svg" width="49.14" height="49.976" viewBox="0 0 49.14 49.976">
  <g id="reset-camera" transform="translate(-3)">
    <g id="Group_19" data-name="Group 19" transform="translate(3)">
      <g id="Group_18" data-name="Group 18">
        <path id="Path_71" data-name="Path 71" d="M15.946,0H4.392A1.4,1.4,0,0,0,3,1.392V12.946a1.4,1.4,0,0,0,1.392,1.392H15.946a1.4,1.4,0,0,0,1.392-1.392V1.392A1.4,1.4,0,0,0,15.946,0ZM14.693,11.693H5.784V2.784h8.909Z" transform="translate(-3)" fill="#fff"/>
      </g>
    </g>
    <g id="Group_21" data-name="Group 21" transform="translate(20.401)">
      <g id="Group_20" data-name="Group 20">
        <path id="Path_72" data-name="Path 72" d="M140.946,0H129.392A1.4,1.4,0,0,0,128,1.392V12.946a1.4,1.4,0,0,0,1.392,1.392h11.554a1.4,1.4,0,0,0,1.392-1.392V1.392A1.4,1.4,0,0,0,140.946,0Zm-1.253,11.693h-8.909V2.784h8.909Z" transform="translate(-128)" fill="#fff"/>
      </g>
    </g>
    <g id="Group_23" data-name="Group 23" transform="translate(3 17.54)">
      <g id="Group_22" data-name="Group 22">
        <path id="Path_73" data-name="Path 73" d="M15.946,126H4.392A1.4,1.4,0,0,0,3,127.392v11.554a1.4,1.4,0,0,0,1.392,1.392H15.946a1.4,1.4,0,0,0,1.392-1.392V127.392A1.4,1.4,0,0,0,15.946,126Zm-1.253,11.554H5.784v-8.77h8.909Z" transform="translate(-3 -126)" fill="#fff"/>
      </g>
    </g>
    <g id="Group_25" data-name="Group 25" transform="translate(20.401 17.54)">
      <g id="Group_24" data-name="Group 24">
        <path id="Path_74" data-name="Path 74" d="M140.946,126H129.392A1.4,1.4,0,0,0,128,127.392v11.554a1.4,1.4,0,0,0,1.392,1.392h11.554a1.4,1.4,0,0,0,1.392-1.392V127.392A1.4,1.4,0,0,0,140.946,126Zm-1.253,11.554h-8.909v-8.77h8.909Z" transform="translate(-128 -126)" fill="#fff"/>
      </g>
    </g>
    <g id="Group_27" data-name="Group 27" transform="translate(37.802)">
      <g id="Group_26" data-name="Group 26">
        <path id="Path_75" data-name="Path 75" d="M265.946,0H254.392A1.4,1.4,0,0,0,253,1.392V12.946a1.4,1.4,0,0,0,1.392,1.392h11.554a1.4,1.4,0,0,0,1.392-1.392V1.392A1.4,1.4,0,0,0,265.946,0Zm-1.253,11.693h-8.909V2.784h8.909Z" transform="translate(-253)" fill="#fff"/>
      </g>
    </g>
    <g id="Group_29" data-name="Group 29" transform="translate(37.802 17.54)">
      <g id="Group_28" data-name="Group 28">
        <path id="Path_76" data-name="Path 76" d="M265.946,126H254.392A1.4,1.4,0,0,0,253,127.392v11.554a1.4,1.4,0,0,0,1.392,1.392h11.554a1.4,1.4,0,0,0,1.392-1.392V127.392A1.4,1.4,0,0,0,265.946,126Zm-1.253,11.554h-8.909v-8.77h8.909Z" transform="translate(-253 -126)" fill="#fff"/>
      </g>
    </g>
    <g id="Group_31" data-name="Group 31" transform="translate(3 35.637)">
      <g id="Group_30" data-name="Group 30">
        <path id="Path_77" data-name="Path 77" d="M15.946,256H4.392A1.4,1.4,0,0,0,3,257.392v11.554a1.4,1.4,0,0,0,1.392,1.392H15.946a1.4,1.4,0,0,0,1.392-1.392V257.392A1.4,1.4,0,0,0,15.946,256Zm-1.253,11.693H5.784v-8.909h8.909Z" transform="translate(-3 -256)" fill="#fff"/>
      </g>
    </g>
    <g id="Group_33" data-name="Group 33" transform="translate(20.401 35.637)">
      <g id="Group_32" data-name="Group 32">
        <path id="Path_78" data-name="Path 78" d="M140.946,256H129.392A1.4,1.4,0,0,0,128,257.392v11.554a1.4,1.4,0,0,0,1.392,1.392h11.554a1.4,1.4,0,0,0,1.392-1.392V257.392A1.4,1.4,0,0,0,140.946,256Zm-1.253,11.693h-8.909v-8.909h8.909Z" transform="translate(-128 -256)" fill="#fff"/>
      </g>
    </g>
    <g id="Group_35" data-name="Group 35" transform="translate(37.802 35.637)">
      <g id="Group_34" data-name="Group 34">
        <path id="Path_79" data-name="Path 79" d="M265.946,256H254.392A1.4,1.4,0,0,0,253,257.392v11.554a1.4,1.4,0,0,0,1.392,1.392h11.554a1.4,1.4,0,0,0,1.392-1.392V257.392A1.4,1.4,0,0,0,265.946,256Zm-1.253,11.693h-8.909v-8.909h8.909Z" transform="translate(-253 -256)" fill="#fff"/>
      </g>
    </g>
  </g>
</svg>
