<svg xmlns="http://www.w3.org/2000/svg" width="51.252" height="51.007" viewBox="0 0 51.252 51.007">
  <g id="Page-1" transform="translate(0.745 0.5)">
    <g id="_022---Internet-Settings" data-name="022---Internet-Settings" transform="translate(-0.004 0)">
      <path id="Shape" d="M31.019,17.11c.221.034.447.05.672.064a2.925,2.925,0,0,1,.814.121,2.89,2.89,0,0,1,.485.278,5.394,5.394,0,0,0,.551.328,2.307,2.307,0,0,0,1.027.256,1.68,1.68,0,0,0,1.1-.382,1.9,1.9,0,0,0,.566-1.816,4.273,4.273,0,0,0-.284-.868c-.04-.1-.083-.2-.118-.3a2.923,2.923,0,0,1-.093-1.606c.186-.817.371-2.283-.475-2.923a1.577,1.577,0,0,0-1.818.029,10.752,10.752,0,0,0-2.446,2.1c-.3.31-.583.613-.867.875a2.584,2.584,0,0,0-1.045,2.191,2.152,2.152,0,0,0,1.936,1.653Zm.243-2.623c.305-.283.617-.609.938-.943a9.736,9.736,0,0,1,2.021-1.779,4.09,4.09,0,0,1-.113,1.051,4.608,4.608,0,0,0,.148,2.535c.045.127.1.25.148.377a2.983,2.983,0,0,1,.186.538c.023.125,0,.213.023.221a.583.583,0,0,1-.326-.075,4.239,4.239,0,0,1-.386-.233,3.412,3.412,0,0,0-2.105-.667c-.175-.011-.35-.021-.522-.048a.75.75,0,0,1-.545-.269c-.007-.043.011-.222.535-.707Z" transform="translate(-5.673 -1.663)" fill="#fff" stroke="#fff" stroke-width="1"/>
      <path id="Shape-2" data-name="Shape" d="M49.024,32.332l-1.676-.239a.662.662,0,0,1-.43-1.037L47.934,29.7a2.319,2.319,0,0,0-.214-3.018l-1.726-1.726c-.038-.038-.083-.068-.123-.1A22.5,22.5,0,0,0,23.5,0c-.466,0-.927.019-1.385.047h-.04a22.52,22.52,0,0,0-17.994,11.1l-.008.009a.017.017,0,0,1-.007.016A22.487,22.487,0,0,0,23.5,45.007a22.19,22.19,0,0,0,2.35-.136c.036.041.065.083.1.123l1.726,1.726a2.318,2.318,0,0,0,3.018.214l1.354-1.011a.65.65,0,0,1,.649-.068.636.636,0,0,1,.388.5l.239,1.677a2.32,2.32,0,0,0,2.286,1.975h2.44a2.32,2.32,0,0,0,2.286-1.983l.239-1.676a.662.662,0,0,1,1.037-.43l1.355,1.016a2.32,2.32,0,0,0,3.018-.214l1.726-1.726a2.319,2.319,0,0,0,.214-3.018l-1.011-1.354a.649.649,0,0,1-.068-.649.636.636,0,0,1,.5-.388l1.678-.239a2.321,2.321,0,0,0,1.974-2.286v-2.44a2.32,2.32,0,0,0-1.983-2.286ZM44.339,22.5c0,.59-.037,1.19-.09,1.79a2.282,2.282,0,0,0-1.274.449l-1.354,1.015a.645.645,0,0,1-.649.068.636.636,0,0,1-.388-.5l-.239-1.677a2.32,2.32,0,0,0-2.286-1.979h-2.44a2.3,2.3,0,0,0-1.2.338c-.009,0-.017-.005-.026-.005a1.365,1.365,0,0,1-.373-.047.762.762,0,0,1-.561-.612c0-.358.5-.77.942-1.134l.2-.167a8.821,8.821,0,0,0,2.765-8.865,16.6,16.6,0,0,0-.844-2.234,13.762,13.762,0,0,1-.809-2.179,4.524,4.524,0,0,1-.126-1.229A20.7,20.7,0,0,1,44.339,22.5ZM20.956,1.828a37.414,37.414,0,0,1-2.144,4.858,3.084,3.084,0,0,1-1.3,1.508,3.354,3.354,0,0,1-1.537.029,4.51,4.51,0,0,0-2.412.167,3.172,3.172,0,0,0-1.779,2.362,5.084,5.084,0,0,0,.3,2.677,8.418,8.418,0,0,0,2.983,3.917c.43.307.887.572,1.334.828a5.463,5.463,0,0,1,2.3,1.917c.627,1.207.051,2.75-.693,3.793a16.669,16.669,0,0,1-1.775,1.959c-.525.523-1.068,1.063-1.563,1.661a13.826,13.826,0,0,0-1.811,2.929c-.515,1.11-.82,1.245-.96,1.232s-.333-.287-.373-.607a4.167,4.167,0,0,1,.083-1.105c.03-.184.059-.369.083-.552a7.035,7.035,0,0,0-1.357-5.049c-.29-.386-.62-.75-.939-1.1A4.1,4.1,0,0,1,7.95,20.8a4.226,4.226,0,0,1,1-2.094l.117-.167a4.417,4.417,0,0,0,1-3.5,4.682,4.682,0,0,0-2.345-2.585q-.9-.557-1.8-1.117A20.857,20.857,0,0,1,20.956,1.828ZM2.666,22.5a20.7,20.7,0,0,1,2.417-9.731l1.759,1.1c.724.449,1.446.942,1.607,1.584a3,3,0,0,1-.75,2.134l-.114.167a5.549,5.549,0,0,0-1.3,3.012c-.023,1.528.988,2.635,1.884,3.613.306.333.6.653.839.977a5.357,5.357,0,0,1,1.029,3.85c-.019.167-.046.325-.072.487a5.526,5.526,0,0,0-.1,1.572,2.26,2.26,0,0,0,1.827,2.06,1.97,1.97,0,0,0,.24.014c1.417,0,2.148-1.584,2.433-2.2a12.2,12.2,0,0,1,1.584-2.572c.441-.533.931-1.021,1.45-1.538a18.183,18.183,0,0,0,1.952-2.167c1.036-1.446,1.8-3.661.823-5.532a6.746,6.746,0,0,0-2.944-2.6c-.428-.25-.833-.482-1.2-.743a6.733,6.733,0,0,1-2.384-3.13,3.482,3.482,0,0,1-.231-1.805,1.527,1.527,0,0,1,.8-1.139,3.222,3.222,0,0,1,1.551-.038,4.68,4.68,0,0,0,2.346-.133,4.471,4.471,0,0,0,2.159-2.27,39.126,39.126,0,0,0,2.49-5.789c.244-.008.488-.018.733-.018A20.67,20.67,0,0,1,34.035,4.545a5.871,5.871,0,0,0,.06,2.623,15.028,15.028,0,0,0,.9,2.448,15.053,15.053,0,0,1,.76,2,7.215,7.215,0,0,1-2.233,7.155l-.183.153a3.327,3.327,0,0,0-1.546,2.4,2.381,2.381,0,0,0,1.576,2.159c-.013.057-.032.11-.04.167l-.239,1.676a.662.662,0,0,1-1.037.43L30.7,24.741a2.318,2.318,0,0,0-3.018.214l-1.726,1.726a2.319,2.319,0,0,0-.214,3.018l1.015,1.354a.649.649,0,0,1,.068.649.636.636,0,0,1-.5.388l-1.677.239a2.32,2.32,0,0,0-1.976,2.288v2.44a2.321,2.321,0,0,0,1.983,2.286l1.676.239a.662.662,0,0,1,.43,1.037l-1.016,1.355a2.281,2.281,0,0,0-.448,1.274c-.6.053-1.2.09-1.791.09A20.86,20.86,0,0,1,2.666,22.5ZM49.34,37.059a.648.648,0,0,1-.551.637l-1.678.239a2.327,2.327,0,0,0-1.522,3.686l1.016,1.355a.645.645,0,0,1-.06.839l-1.726,1.726a.646.646,0,0,1-.839.06l-1.355-1.017a2.328,2.328,0,0,0-3.686,1.528L38.7,47.79a.646.646,0,0,1-.637.551H35.618a.646.646,0,0,1-.637-.551l-.239-1.678a2.325,2.325,0,0,0-3.686-1.522L29.7,45.606a.645.645,0,0,1-.839-.06L27.135,43.82a.645.645,0,0,1-.06-.839l1.017-1.355a2.328,2.328,0,0,0-1.528-3.686L24.888,37.7a.648.648,0,0,1-.552-.641v-2.44a.646.646,0,0,1,.551-.637l1.678-.239a2.327,2.327,0,0,0,1.526-3.686L27.075,28.7a.645.645,0,0,1,.06-.839l1.726-1.726a.644.644,0,0,1,.839-.06l1.355,1.017a2.328,2.328,0,0,0,3.686-1.528l.239-1.677a.646.646,0,0,1,.637-.551h2.44a.646.646,0,0,1,.637.551l.239,1.678a2.327,2.327,0,0,0,3.686,1.526l1.355-1.016a.645.645,0,0,1,.839.06l1.726,1.726a.645.645,0,0,1,.06.839l-1.017,1.355a2.328,2.328,0,0,0,1.528,3.686l1.677.239a.646.646,0,0,1,.551.637Z" transform="translate(-0.996 0)" fill="#fff" stroke="#fff" stroke-width="1"/>
      <path id="Shape-3" data-name="Shape" d="M42.5,34A7.5,7.5,0,1,0,50,41.5,7.5,7.5,0,0,0,42.5,34Zm0,13.335A5.834,5.834,0,1,1,48.335,41.5,5.834,5.834,0,0,1,42.5,47.335Z" transform="translate(-6.659 -5.662)" fill="#fff" stroke="#fff" stroke-width="1"/>
      <path id="Shape-4" data-name="Shape" d="M43.5,40A2.5,2.5,0,1,0,46,42.5,2.5,2.5,0,0,0,43.5,40Zm0,3.334a.833.833,0,1,1,.833-.833A.833.833,0,0,1,43.5,43.334Z" transform="translate(-7.658 -6.662)" fill="#fff" stroke="#fff" stroke-width="1"/>
    </g>
  </g>
</svg>
