<svg xmlns="http://www.w3.org/2000/svg" width="50.547" height="50.601" viewBox="0 0 50.547 50.601">
  <g id="world" transform="translate(0.613 0.381)">
    <path id="Path_3" data-name="Path 3" d="M49.351,23.083a.8.8,0,0,0,.049-.241.826.826,0,0,0-.041-.256l-.064-.18A24.692,24.692,0,0,0,40.3,5.781c-.363-.3-.743-.563-1.123-.837-.019-.016-.029-.038-.05-.053s-.037-.013-.054-.024A24.814,24.814,0,0,0,24.666.221c-.213,0-.427,0-.586.017a24.192,24.192,0,0,0-8.068,1.552A7.421,7.421,0,0,0,4.027,7.651a7.842,7.842,0,0,0,.648,2.737A24.82,24.82,0,0,0,2.458,14.04c-.012.02-.02.041-.031.062A24.767,24.767,0,0,0,46.47,36.741,24.382,24.382,0,0,0,49.4,26.2c.026-.4.035-.8.035-1.211,0-.64-.033-1.274-.083-1.906Zm-2.4-4.237c-.1-.093-.2-.2-.311-.287a10.88,10.88,0,0,0-3.6-1.8,7.76,7.76,0,0,0-3.62-.038,7.137,7.137,0,0,1-3.084.015c-1.974-.431-3.533-.771-4.36-2.092-1.185-1.9-.629-4.568.621-5.507a1.884,1.884,0,0,1,1.413-.3A5.278,5.278,0,0,0,36.564,8.4a6.634,6.634,0,0,0,2.229-1.7c.156.121.321.229.474.354a23.084,23.084,0,0,1,7.685,11.785ZM11.457,1.872a5.788,5.788,0,0,1,5.779,5.779c0,2.469-3.709,8.123-5.779,10.989a51.884,51.884,0,0,1-5.093-8.463,6.881,6.881,0,0,1-.686-2.526,5.786,5.786,0,0,1,5.779-5.779ZM1.55,24.988a23.376,23.376,0,0,1,.463-4.581c.088,1.148.238,2.169.372,3.054.512,3.385.995,6.576,3.49,9.494,1.043,1.229,2.79,3.285,5.492,3.589s6.084-1.25,7.061-1.734l.375-.189a3.631,3.631,0,0,1,1.725-.552,4.072,4.072,0,0,1,2.7,1.379c1.409,1.56,1.766,4.164.765,5.573a2.535,2.535,0,0,1-1.268.881,3.857,3.857,0,0,0-2.07,1.651,5.1,5.1,0,0,0-.357,4.128A23.152,23.152,0,0,1,1.55,24.988ZM24.666,48.1a23.286,23.286,0,0,1-2.388-.123,2.923,2.923,0,0,1-.188-.271,3.513,3.513,0,0,1-.016-3.312,2.278,2.278,0,0,1,1.3-.975,4.114,4.114,0,0,0,1.969-1.446c1.436-2.019,1.03-5.517-.883-7.633a5.669,5.669,0,0,0-3.911-1.926h-.037a5,5,0,0,0-2.459.732l-.352.178c-1.8.889-4.371,1.768-6.147,1.569-2.05-.229-3.474-1.907-4.419-3.018-2.19-2.559-2.618-5.391-3.113-8.669a23.738,23.738,0,0,1-.063-8.491,23.155,23.155,0,0,1,1.5-2.592c.027.055.058.111.083.165.053.1.107.209.165.314l.248.469q.085.158.173.318.131.235.265.47c.06.1.119.208.179.312q.138.235.277.469c.061.1.121.2.183.306.1.165.2.319.294.478.056.09.111.182.165.271.122.2.243.386.365.578l.1.15q.227.351.448.686c.056.083.11.165.165.248.091.136.181.273.27.4l.2.287c.071.1.143.21.212.31l.2.285c.061.089.123.175.181.258s.125.178.186.263l.151.213.165.228.135.187.131.181.107.145.1.137.06.083.146.2a.825.825,0,0,0,1.321,0c.693-.919,6.771-9.068,6.771-12.884,0-.241-.015-.481-.038-.718-.007-.073-.019-.147-.028-.22-.021-.165-.047-.331-.082-.5-.016-.083-.033-.16-.051-.239q-.057-.248-.133-.5c-.021-.066-.038-.133-.06-.2-.074-.221-.158-.44-.252-.653-.018-.041-.04-.083-.059-.12-.083-.172-.165-.342-.26-.508-.041-.074-.087-.146-.131-.219q-.119-.2-.248-.385c-.051-.073-.1-.147-.157-.219-.028-.036-.052-.075-.083-.11a22.545,22.545,0,0,1,5.305-1.1,9.521,9.521,0,0,0-1.227,6.687,8.608,8.608,0,0,0,1.982,3.612,4.05,4.05,0,0,1,1.3,2.787c-.071,2.394-2.775,4.387-3.8,5.14a14.216,14.216,0,0,1-4.433,2.141c-1.5.49-2.793.912-3.288,2.388a4.707,4.707,0,0,0,2,5.091,4.17,4.17,0,0,0,3.29.291,10.155,10.155,0,0,1,3.643-.174c1.569.222,2.921.413,3.562,1.311a2.967,2.967,0,0,1,.287,2.109,10,10,0,0,0,.428,4.279c.377,1.13.945,2.835,2.312,3.032a1.709,1.709,0,0,0,.268.021c.967,0,1.559-.854,2.181-1.752.275-.4.578-.826.941-1.256,1.7,2.745,3.425,5.036,3.505,5.145a.826.826,0,0,0,1.321,0A68.634,68.634,0,0,0,41.772,35.3a10.848,10.848,0,0,1,2.867,1.307A23.079,23.079,0,0,1,24.666,48.1ZM40.075,25.638A5.765,5.765,0,0,1,42,29.942a9.842,9.842,0,0,1-1.386,4.007,61.534,61.534,0,0,1-4.393,6.979c-.777-1.082-2.114-3-3.31-5.023a30.525,30.525,0,0,1-1.783-3.437,6.881,6.881,0,0,1-.686-2.526,5.786,5.786,0,0,1,5.779-5.779q.268,0,.532.024a5.728,5.728,0,0,1,3.32,1.451Zm7.678.476a22.744,22.744,0,0,1-2.325,9.036,12.556,12.556,0,0,0-2.9-1.351,9.781,9.781,0,0,0,1.125-3.857A7.461,7.461,0,0,0,39.5,23.269l-.052-.023c-.185-.089-.372-.173-.564-.248-.131-.051-.268-.091-.4-.134-.083-.025-.157-.056-.237-.083-.213-.06-.429-.11-.647-.15h-.011c-.132-.025-.266-.038-.4-.055a7.378,7.378,0,0,0-8.39,7.365,8.5,8.5,0,0,0,.818,3.173,30.459,30.459,0,0,0,1.564,3.075,15.218,15.218,0,0,0-1.414,1.8,4.3,4.3,0,0,1-.849,1.04c-.165-.025-.471-.377-.991-1.922a8.47,8.47,0,0,1-.347-3.637,4.416,4.416,0,0,0-.589-3.186C25.93,28.812,24.09,28.553,22.3,28.3a11.632,11.632,0,0,0-4.176.187c-1.056.2-1.546.277-2.107-.072a3.129,3.129,0,0,1-1.3-3.164c.221-.66.881-.9,2.229-1.342a15.848,15.848,0,0,0,4.9-2.383c1.2-.882,4.376-3.224,4.471-6.419a5.552,5.552,0,0,0-1.667-3.869,7.14,7.14,0,0,1-1.658-2.952c-.439-1.839.1-4,1.579-6.414h.095A23.171,23.171,0,0,1,37.442,5.734,4.96,4.96,0,0,1,35.884,6.9a3.7,3.7,0,0,1-1.829.286,3.463,3.463,0,0,0-2.454.631c-1.872,1.409-2.711,5-1.028,7.7,1.2,1.913,3.243,2.359,5.477,2.846a8.644,8.644,0,0,0,3.646-.016,6.228,6.228,0,0,1,2.93.009,9.2,9.2,0,0,1,3,1.5,6.76,6.76,0,0,1,2.05,2.927c.068.729.11,1.46.11,2.2,0,.369-.007.743-.032,1.125Zm0,0" transform="translate(0 0)" fill="#fff" stroke="#fff" stroke-width="1"/>
    <path id="Path_4" data-name="Path 4" d="M82.74,38.835a3.3,3.3,0,1,0-3.3-3.3A3.3,3.3,0,0,0,82.74,38.835Zm0-4.953a1.651,1.651,0,1,1-1.651,1.651A1.651,1.651,0,0,1,82.74,33.882Zm0,0" transform="translate(-71.283 -28.707)" fill="#fff" stroke="#fff" stroke-width="1"/>
    <path id="Path_5" data-name="Path 5" d="M319.438,251.532a3.3,3.3,0,1,0,3.3-3.3A3.3,3.3,0,0,0,319.438,251.532Zm4.953,0a1.651,1.651,0,1,1-1.651-1.651A1.651,1.651,0,0,1,324.391,251.532Zm0,0" transform="translate(-286.516 -222.416)" fill="#fff" stroke="#fff" stroke-width="1"/>
  </g>
</svg>
