<svg xmlns="http://www.w3.org/2000/svg" width="50.9" height="50.9" viewBox="0 0 50.9 50.9">
  <g id="cross" transform="translate(-2.875 -2.875)">
    <path id="Path_1" data-name="Path 1" d="M31.015,28.307l-6.321-6.321,6.321-6.321A1.917,1.917,0,1,0,28.3,12.953l-6.321,6.321-6.321-6.321a1.917,1.917,0,0,0-2.711,2.711l6.321,6.321L12.95,28.307a1.853,1.853,0,0,0,0,2.711,1.9,1.9,0,0,0,2.711,0L21.982,24.7,28.3,31.018a1.926,1.926,0,0,0,2.711,0A1.9,1.9,0,0,0,31.015,28.307Z" transform="translate(6.343 6.339)" fill="#ffd3e2" stroke="#ffd3e2" stroke-width="1"/>
    <path id="Path_2" data-name="Path 2" d="M28.325,6.734a21.595,21.595,0,0,1,15.27,36.861,21.595,21.595,0,0,1-30.54-30.54,21.448,21.448,0,0,1,15.27-6.321m0-3.359a24.95,24.95,0,1,0,24.95,24.95,24.946,24.946,0,0,0-24.95-24.95Z" fill="#ffd3e2" stroke="#ffd3e2" stroke-width="1"/>
  </g>
</svg>
