<svg xmlns="http://www.w3.org/2000/svg" width="48.686" height="48.535" viewBox="0 0 48.686 48.535">
  <g id="turn" transform="translate(-0.733 -1.506)">
    <path id="Path_64" data-name="Path 64" d="M172.875,17.394l8.143-9.142,8.143,9.142h-5.319V56.787h-5.649V17.394Z" transform="translate(-155.942 -6.746)" fill="#febd00"/>
    <path id="Path_65" data-name="Path 65" d="M232.822,165.925a13.22,13.22,0,0,0-5.649,5.178v27.912h5.649v-33.09h0Z" transform="translate(-204.921 -148.975)" fill="#d19b00"/>
    <path id="Path_66" data-name="Path 66" d="M232.809,158.1V138.438a7.28,7.28,0,0,1,2.253-5.281,7.485,7.485,0,0,1,5.392-2.1l4.611,0v5.583l9.264-8.036-9.264-8.036v4.916h-4.471a13.134,13.134,0,0,0-9.48,3.687,12.775,12.775,0,0,0-3.954,9.268V158.1Z" transform="translate(-204.909 -108.059)" fill="#09f"/>
    <path id="Path_67" data-name="Path 67" d="M227.159,288.231h5.649V269.726a13.229,13.229,0,0,0-5.1-4.9,12.86,12.86,0,0,0-.552,3.741v19.661Z" transform="translate(-204.908 -238.191)" fill="#0078c7"/>
    <path id="Path_68" data-name="Path 68" d="M29,244.732V234.478a7.28,7.28,0,0,0-2.253-5.281,7.485,7.485,0,0,0-5.392-2.1l-4.611,0v5.583l-9.264-8.036,9.264-8.036v4.916h4.471a13.134,13.134,0,0,1,9.48,3.687,12.775,12.775,0,0,1,3.954,9.268v10.254H29Z" transform="translate(-6.746 -194.692)" fill="#ff0054"/>
  </g>
</svg>
