<svg xmlns="http://www.w3.org/2000/svg" width="42.814" height="49.438" viewBox="0 0 42.814 49.438">
  <g id="perspective" transform="translate(-34.3)">
    <g id="Group_1" data-name="Group 1" transform="translate(34.3)">
      <path id="Path_6" data-name="Path 6" d="M55.707,0,34.3,12.36V37.078l21.407,12.36,21.407-12.36V12.36Zm1.448,4.181L72.769,13.2l-8.69,5.017-6.923-4Zm-2.9,0V14.216l-6.923,4L38.645,13.2ZM37.2,15.7l8.69,5.017v7.994L37.2,33.733ZM54.259,45.256,38.645,36.242l8.69-5.017,6.923,4Zm0-13.38-5.475-3.161V22.394l5.475,3.161ZM50.232,19.886l5.475-3.161,5.475,3.161-5.475,3.161Zm12.4,2.509v6.322l-5.475,3.161V25.555ZM57.155,45.256V35.222l6.923-4,8.69,5.017ZM74.217,33.733l-8.69-5.017V20.722l8.69-5.017Z" transform="translate(-34.3)" fill="#fff"/>
    </g>
  </g>
</svg>
