<svg xmlns="http://www.w3.org/2000/svg" width="51.466" height="51.898" viewBox="0 0 51.466 51.898">
  <g id="settings" transform="translate(-1.444 0.75)">
    <path id="XMLID_1921_" d="M50.7,20.294H47.276a20.6,20.6,0,0,0-2.41-6l2.394-2.415a1.464,1.464,0,0,0,0-2.061L42.438,4.953a1.464,1.464,0,0,0-2.08,0L38.025,7.307a20.231,20.231,0,0,0-5.973-2.521V1.464A1.464,1.464,0,0,0,30.587,0H23.769A1.464,1.464,0,0,0,22.3,1.464V4.786a20.231,20.231,0,0,0-5.973,2.521L14,4.952a1.464,1.464,0,0,0-2.08,0L7.1,9.818a1.464,1.464,0,0,0,0,2.061L9.49,14.295a20.6,20.6,0,0,0-2.41,6H3.659a1.464,1.464,0,0,0-1.464,1.464V28.64A1.464,1.464,0,0,0,3.659,30.1H7.171A20.613,20.613,0,0,0,9.633,35.96L7.1,38.519a1.464,1.464,0,0,0,0,2.061l4.822,4.866a1.464,1.464,0,0,0,2.08,0l2.567-2.591a20.252,20.252,0,0,0,5.74,2.377v3.7A1.464,1.464,0,0,0,23.768,50.4h6.819a1.464,1.464,0,0,0,1.464-1.464v-3.7a20.245,20.245,0,0,0,5.74-2.377l2.567,2.591a1.464,1.464,0,0,0,2.08,0l4.822-4.866a1.464,1.464,0,0,0,0-2.061L44.723,35.96A20.607,20.607,0,0,0,47.185,30.1H50.7a1.464,1.464,0,0,0,1.464-1.464V21.758A1.464,1.464,0,0,0,50.7,20.294Z" transform="translate(-0.001 0)" fill="#dee3f2" stroke="#000" stroke-width="1.5"/>
    <g id="XMLID_1919_" transform="translate(13.297 11.008)">
      <ellipse id="XMLID_1920_" cx="13.881" cy="14.231" rx="13.881" ry="14.231" fill="#ff0"/>
    </g>
    <g id="XMLID_4229_" transform="translate(14.891 13.227)">
      <path id="XMLID_1916_" d="M207.191,315.685a7.7,7.7,0,0,0,2,2.661v-6.561h-3.342A17.1,17.1,0,0,0,207.191,315.685Z" transform="translate(-198.502 -294.322)" fill="none"/>
      <path id="XMLID_1915_" d="M200.016,235.7c0,.767.033,1.522.1,2.261h3.821v-4.523h-3.821C200.049,234.174,200.016,234.929,200.016,235.7Z" transform="translate(-193.241 -223.685)" fill="none"/>
      <path id="XMLID_1914_" d="M326.331,152.6a12.608,12.608,0,0,0-4.614-5.288,20.911,20.911,0,0,1,1.722,5.288Z" transform="translate(-302.962 -146.042)" fill="none"/>
      <path id="XMLID_1913_" d="M207.191,137.04a17.1,17.1,0,0,0-1.339,3.9h3.342v-6.561A7.7,7.7,0,0,0,207.191,137.04Z" transform="translate(-198.502 -134.379)" fill="none"/>
      <path id="XMLID_1912_" d="M148.023,147.316a12.608,12.608,0,0,0-4.614,5.288H146.3A20.914,20.914,0,0,1,148.023,147.316Z" transform="translate(-142.206 -146.043)" fill="none"/>
      <path id="XMLID_1911_" d="M143.409,311.785a12.608,12.608,0,0,0,4.614,5.288,20.92,20.92,0,0,1-1.721-5.288Z" transform="translate(-142.206 -294.322)" fill="none"/>
      <path id="XMLID_1910_" d="M134.773,235.7c0-.763.029-1.518.084-2.261h-3.473a13.055,13.055,0,0,0,0,4.523h3.473C134.8,237.215,134.773,236.46,134.773,235.7Z" transform="translate(-131.187 -223.685)" fill="none"/>
      <path id="XMLID_1909_" d="M321.717,317.073a12.609,12.609,0,0,0,4.614-5.288h-2.892A20.923,20.923,0,0,1,321.717,317.073Z" transform="translate(-302.962 -294.322)" fill="none"/>
      <path id="XMLID_1908_" d="M272.2,233.435v4.523h3.821c.062-.739.1-1.494.1-2.261s-.033-1.522-.1-2.261Z" transform="translate(-258.32 -223.685)" fill="none"/>
      <path id="XMLID_1907_" d="M347,233.4c-.021,0-.043,0-.064,0h-3.408c.056.743.085,1.5.085,2.261s-.029,1.518-.085,2.261H347a13.056,13.056,0,0,0,0-4.526Z" transform="translate(-322.626 -223.655)" fill="none"/>
      <path id="XMLID_1898_" d="M272.2,313.027v5.319a7.7,7.7,0,0,0,2-2.661,17.1,17.1,0,0,0,1.339-3.9H272.2Z" transform="translate(-258.32 -294.322)" fill="none"/>
      <path id="XMLID_1897_" d="M274.2,137.04a7.7,7.7,0,0,0-2-2.661v6.561h3.342A17.1,17.1,0,0,0,274.2,137.04Z" transform="translate(-258.32 -134.379)" fill="none"/>
    </g>
    <path id="XMLID_1883_" d="M114.26,95.628a15.83,15.83,0,1,0,15.475,15.826A15.671,15.671,0,0,0,114.26,95.628Zm-12.286,15.826a13.013,13.013,0,0,1,.2-2.261h3.473c-.056.743-.085,1.5-.085,2.261s.029,1.518.085,2.261h-3.473A13.014,13.014,0,0,1,101.974,111.454Zm6.775,0c0-.767.033-1.522.1-2.261h3.821v4.523h-3.821C108.783,112.977,108.75,112.222,108.75,111.454Zm11.022,0c0,.767-.033,1.522-.1,2.261h-3.821v-4.523h3.821C119.738,109.932,119.771,110.687,119.771,111.454ZM115.855,106V99.442a7.7,7.7,0,0,1,2,2.661A17.1,17.1,0,0,1,119.2,106Zm-3.189-6.561V106h-3.342a17.1,17.1,0,0,1,1.339-3.9A7.7,7.7,0,0,1,112.666,99.442Zm0,17.463v6.561a7.7,7.7,0,0,1-2-2.661,17.1,17.1,0,0,1-1.339-3.9Zm3.189,6.561v-6.561H119.2a17.1,17.1,0,0,1-1.339,3.9A7.705,7.705,0,0,1,115.855,123.466Zm7.021-9.751c.056-.743.085-1.5.085-2.261s-.029-1.518-.085-2.261h3.408c.022,0,.043,0,.064,0a13.054,13.054,0,0,1,0,4.526ZM125.343,106h-2.892a20.919,20.919,0,0,0-1.722-5.288A12.608,12.608,0,0,1,125.343,106Zm-17.552-5.287A20.918,20.918,0,0,0,106.07,106h-2.892a12.607,12.607,0,0,1,4.614-5.288Zm-4.614,16.189h2.892a20.92,20.92,0,0,0,1.722,5.288A12.607,12.607,0,0,1,103.178,116.905Zm17.552,5.288a20.924,20.924,0,0,0,1.722-5.288h2.892A12.608,12.608,0,0,1,120.729,122.193Z" transform="translate(-87.083 -86.215)" fill="#09f"/>
  </g>
</svg>
