<svg xmlns="http://www.w3.org/2000/svg" width="50.206" height="50.206" viewBox="0 0 50.206 50.206">
  <path id="street-view" d="M36.076,32.336a6.27,6.27,0,0,1-1.559,1.338v2.249c6.523.916,10.982,2.751,10.982,4.869,0,3.033-9.131,5.491-20.4,5.491s-20.4-2.458-20.4-5.491c0-2.118,4.46-3.952,10.982-4.869V33.674a6.27,6.27,0,0,1-1.559-1.338C5.773,33.863,0,37.071,0,40.792c0,5.2,11.239,9.414,25.1,9.414s25.1-4.215,25.1-9.414C50.206,37.071,44.433,33.863,36.076,32.336ZM25.1,12.551a6.276,6.276,0,1,0-6.276-6.276A6.275,6.275,0,0,0,25.1,12.551ZM18.827,31.379v9.414a3.138,3.138,0,0,0,3.138,3.138h6.276a3.138,3.138,0,0,0,3.138-3.138V31.379a3.138,3.138,0,0,0,3.138-3.138V18.827A4.707,4.707,0,0,0,29.81,14.12H28.653a8.423,8.423,0,0,1-7.1,0H20.4a4.707,4.707,0,0,0-4.707,4.707v9.414A3.138,3.138,0,0,0,18.827,31.379Z" fill="#fff"/>
</svg>
